<?xml version="1.0" encoding="utf-8"?>
<!-- Generator: Adobe Illustrator 19.2.1, SVG Export Plug-In . SVG Version: 6.00 Build 0)  -->
<svg version="1.2" baseProfile="tiny" id="Layer_1" xmlns="http://www.w3.org/2000/svg" xmlns:xlink="http://www.w3.org/1999/xlink"
	 x="0px" y="0px" viewBox="0 0 1653.6 1247.6" xml:space="preserve">
<g>
	<path fill="#3A7D53" d="M464.1,658.3v-26.5h63.3v62.7c-6.2,6.4-15.1,12.1-26.7,17c-11.7,4.9-23.5,7.4-35.5,7.4
		c-15.2,0-28.5-3.5-39.8-10.4c-11.3-6.9-19.8-16.8-25.5-29.6c-5.7-12.9-8.5-26.8-8.5-41.9c0-16.4,3.2-31,9.5-43.7
		c6.3-12.7,15.6-22.5,27.9-29.3c9.3-5.2,20.9-7.8,34.8-7.8c18.1,0,32.2,4.1,42.3,12.3c10.2,8.2,16.7,19.5,19.6,34l-29.2,5.9
		c-2.1-7.7-5.9-13.8-11.6-18.3c-5.7-4.5-12.7-6.7-21.2-6.7c-12.8,0-23,4.4-30.6,13.2c-7.6,8.8-11.4,21.9-11.4,39.2
		c0,18.7,3.8,32.7,11.5,42.1c7.7,9.3,17.7,14,30.2,14c6.2,0,12.3-1.3,18.5-3.9c6.2-2.6,11.5-5.8,15.9-9.5v-20H464.1z"/>
	<path fill="#3A7D53" d="M570.8,716.2h-27.9V602.1h25.9v16.2c4.4-7.7,8.4-12.7,12-15.1c3.5-2.4,7.6-3.7,12.1-3.7
		c6.3,0,12.5,1.9,18.4,5.7l-8.6,26.3c-4.7-3.3-9.1-4.9-13.1-4.9c-3.9,0-7.2,1.2-9.9,3.5c-2.7,2.3-4.8,6.5-6.4,12.6
		c-1.6,6.1-2.3,18.8-2.3,38.2V716.2z"/>
	<path fill="#3A7D53" d="M674,679.9l27.8,5c-3.6,11-9.2,19.4-16.9,25.2c-7.7,5.8-17.3,8.6-28.9,8.6c-18.3,0-31.9-6.5-40.7-19.4
		c-6.9-10.4-10.4-23.5-10.4-39.3c0-18.9,4.6-33.7,13.7-44.4c9.1-10.7,20.7-16.1,34.6-16.1c15.7,0,28,5.6,37.1,16.8
		c9.1,11.2,13.4,28.4,13,51.5h-69.8c0.2,9,2.4,15.9,6.7,20.9c4.3,5,9.7,7.5,16.1,7.5c4.4,0,8-1.3,11-3.9
		C670.3,689.7,672.5,685.6,674,679.9z M675.6,649.3c-0.2-8.7-2.3-15.4-6.3-19.9c-4-4.5-8.8-6.8-14.5-6.8c-6.1,0-11.1,2.4-15.1,7.2
		c-4,4.8-5.9,11.3-5.9,19.6H675.6z"/>
	<path fill="#3A7D53" d="M736.7,636.9l-25.3-4.9c2.8-11,7.7-19.2,14.7-24.5c6.9-5.3,17.3-7.9,31-7.9c12.4,0,21.7,1.6,27.8,4.8
		c6.1,3.2,10.4,7.2,12.8,12.1c2.5,4.9,3.7,13.9,3.7,27l-0.3,35.2c0,10,0.4,17.4,1.3,22.2c0.9,4.8,2.6,9.9,5,15.3h-27.6
		c-0.7-2-1.6-5-2.7-8.9c-0.5-1.8-0.8-3-1-3.5c-4.8,5-9.9,8.8-15.3,11.3c-5.4,2.5-11.2,3.8-17.4,3.8c-10.8,0-19.4-3.2-25.6-9.6
		c-6.2-6.4-9.4-14.4-9.4-24.2c0-6.4,1.4-12.2,4.3-17.2c2.8-5,6.8-8.9,12-11.6c5.1-2.7,12.5-5,22.2-7c13-2.6,22.1-5.1,27.1-7.4v-3
		c0-5.8-1.3-9.9-4-12.4c-2.6-2.5-7.6-3.7-15-3.7c-5,0-8.8,1.1-11.6,3.2C740.7,627.9,738.4,631.6,736.7,636.9z M774,661.4
		c-3.6,1.3-9.2,2.8-17,4.6c-7.7,1.8-12.8,3.5-15.2,5.3c-3.6,2.8-5.5,6.3-5.5,10.6c0,4.2,1.5,7.9,4.4,11c2.9,3.1,6.6,4.6,11.1,4.6
		c5,0,9.8-1.8,14.4-5.4c3.4-2.7,5.6-6.1,6.6-10c0.7-2.6,1.1-7.5,1.1-14.7V661.4z"/>
	<path fill="#3A7D53" d="M867,602.1v24.1h-19v46c0,9.3,0.2,14.7,0.5,16.3c0.4,1.5,1.2,2.8,2.5,3.8c1.3,1,2.9,1.5,4.7,1.5
		c2.6,0,6.3-1,11.2-2.9l2.4,23.4c-6.5,3-13.8,4.5-22,4.5c-5,0-9.6-0.9-13.6-2.7c-4-1.8-7-4.2-8.9-7.1s-3.2-6.8-3.9-11.8
		c-0.6-3.5-0.9-10.6-0.9-21.3v-49.7h-12.8v-24.1H820v-22.7l28-17.6v40.3H867z"/>
	<path fill="#3A7D53" d="M915.2,664.9l28.6-3c1.7,10.4,5.2,18,10.5,22.9c5.3,4.9,12.4,7.3,21.3,7.3c9.5,0,16.6-2.2,21.4-6.5
		c4.8-4.3,7.2-9.4,7.2-15.2c0-3.7-1-6.9-3-9.5c-2-2.6-5.5-4.9-10.6-6.8c-3.4-1.3-11.3-3.6-23.5-6.9c-15.7-4.2-26.8-9.4-33.1-15.6
		c-8.9-8.7-13.4-19.2-13.4-31.7c0-8,2.1-15.5,6.3-22.5c4.2-7,10.3-12.3,18.2-16c7.9-3.7,17.4-5.5,28.6-5.5c18.3,0,32,4.3,41.2,13
		c9.2,8.7,14.1,20.2,14.5,34.7l-29.4,1.4c-1.3-8.1-4-13.9-8.1-17.5c-4.1-3.5-10.3-5.3-18.6-5.3c-8.5,0-15.2,1.9-20,5.7
		c-3.1,2.4-4.7,5.7-4.7,9.8c0,3.7,1.5,6.9,4.4,9.6c3.7,3.4,12.7,6.9,27,10.5s24.9,7.4,31.7,11.3c6.8,3.9,12.2,9.2,16.1,16
		c3.9,6.8,5.8,15.1,5.8,25.1c0,9-2.3,17.5-6.9,25.4c-4.6,7.9-11.2,13.7-19.6,17.6c-8.5,3.8-19,5.7-31.6,5.7
		c-18.4,0-32.5-4.6-42.4-13.8C923.1,695.9,917.2,682.5,915.2,664.9z"/>
	<path fill="#3A7D53" d="M1067.5,716.2l-33.3-114.1h27.1l19.7,74.8l18.2-74.8h26.9l17.6,74.8l20.1-74.8h27.5l-33.8,114.1h-26.8
		l-18.2-73.4l-17.9,73.4H1067.5z"/>
	<path fill="#3A7D53" d="M1216.5,636.9l-25.3-4.9c2.8-11,7.7-19.2,14.7-24.5c6.9-5.3,17.3-7.9,31-7.9c12.4,0,21.7,1.6,27.8,4.8
		c6.1,3.2,10.4,7.2,12.8,12.1c2.5,4.9,3.7,13.9,3.7,27l-0.3,35.2c0,10,0.4,17.4,1.3,22.2c0.9,4.8,2.6,9.9,5,15.3h-27.6
		c-0.7-2-1.6-5-2.7-8.9c-0.5-1.8-0.8-3-1-3.5c-4.8,5-9.9,8.8-15.3,11.3c-5.4,2.5-11.2,3.8-17.4,3.8c-10.8,0-19.4-3.2-25.6-9.6
		c-6.2-6.4-9.4-14.4-9.4-24.2c0-6.4,1.4-12.2,4.3-17.2c2.8-5,6.8-8.9,12-11.6c5.1-2.7,12.5-5,22.2-7c13-2.6,22.1-5.1,27.1-7.4v-3
		c0-5.8-1.3-9.9-4-12.4c-2.6-2.5-7.6-3.7-15-3.7c-5,0-8.8,1.1-11.6,3.2C1220.5,627.9,1218.3,631.6,1216.5,636.9z M1253.8,661.4
		c-3.6,1.3-9.2,2.8-17,4.6c-7.7,1.8-12.8,3.5-15.2,5.3c-3.6,2.8-5.5,6.3-5.5,10.6c0,4.2,1.5,7.9,4.4,11c2.9,3.1,6.6,4.6,11.1,4.6
		c5,0,9.8-1.8,14.4-5.4c3.4-2.7,5.6-6.1,6.6-10c0.7-2.6,1.1-7.5,1.1-14.7V661.4z"/>
	<path fill="#3A7D53" d="M1296.5,602.1h25.7v15.6c9.2-12.1,20.1-18.2,32.8-18.2c6.7,0,12.6,1.5,17.6,4.5c5,3,9,7.6,12.2,13.6
		c4.6-6.1,9.6-10.6,15-13.6c5.4-3,11.1-4.5,17.2-4.5c7.7,0,14.3,1.7,19.6,5.1c5.4,3.4,9.4,8.4,12,15c1.9,4.9,2.9,12.7,2.9,23.6v72.9
		h-27.9V651c0-11.3-1-18.6-2.9-21.9c-2.6-4.3-6.5-6.4-11.9-6.4c-3.9,0-7.6,1.3-11,3.9c-3.4,2.6-5.9,6.4-7.4,11.3
		c-1.5,5-2.3,12.8-2.3,23.6v54.8h-27.9v-62.5c0-11.1-0.5-18.3-1.5-21.5s-2.5-5.6-4.6-7.2c-2.1-1.6-4.9-2.4-8.5-2.4
		c-4.3,0-8.2,1.3-11.6,3.8c-3.4,2.5-5.9,6.1-7.4,10.8c-1.5,4.7-2.2,12.6-2.2,23.5v55.4h-27.9V602.1z"/>
	<path fill="#3A7D53" d="M1468.2,602.1h26v16.8c3.4-5.7,7.9-10.4,13.7-14c5.8-3.6,12.1-5.4,19.1-5.4c12.2,0,22.6,5.2,31.2,15.6
		c8.5,10.4,12.8,24.9,12.8,43.4c0,19.1-4.3,33.9-12.9,44.4c-8.6,10.6-19,15.8-31.2,15.8c-5.8,0-11.1-1.3-15.8-3.8
		c-4.7-2.5-9.7-6.8-14.9-12.9v57.5h-27.9V602.1z M1495.8,657.2c0,12.8,2.3,22.3,7,28.4c4.7,6.1,10.4,9.2,17.2,9.2
		c6.5,0,11.9-2.8,16.2-8.4c4.3-5.6,6.4-14.8,6.4-27.7c0-12-2.2-20.8-6.6-26.6c-4.4-5.8-9.9-8.7-16.5-8.7c-6.8,0-12.5,2.8-17,8.5
		C1498.1,637.6,1495.8,646,1495.8,657.2z"/>
	<path fill="#3A7D53" d="M417.1,980.2l-34.7-157.5h30.1l21.9,108.2l26.6-108.2h34.9l25.5,110l22.3-110h29.6l-35.3,157.5h-31.1
		l-29-117.7l-28.9,117.7H417.1z"/>
	<path fill="#3A7D53" d="M622,900.9l-25.3-4.9c2.8-11,7.7-19.2,14.7-24.5c6.9-5.3,17.3-7.9,31-7.9c12.4,0,21.7,1.6,27.8,4.8
		c6.1,3.2,10.4,7.2,12.8,12.1c2.5,4.9,3.7,13.9,3.7,27l-0.3,35.2c0,10,0.4,17.4,1.3,22.2c0.9,4.8,2.6,9.9,5,15.3h-27.6
		c-0.7-2-1.6-5-2.7-8.9c-0.5-1.8-0.8-3-1-3.5c-4.8,5-9.9,8.8-15.3,11.3c-5.4,2.5-11.2,3.8-17.4,3.8c-10.8,0-19.4-3.2-25.6-9.6
		c-6.3-6.4-9.4-14.4-9.4-24.2c0-6.4,1.4-12.2,4.3-17.2s6.8-8.9,12-11.6c5.1-2.7,12.5-5,22.2-7c13-2.6,22.1-5.1,27.1-7.4v-3
		c0-5.8-1.3-9.9-4-12.4c-2.6-2.5-7.6-3.7-15-3.7c-5,0-8.8,1.1-11.6,3.2C626,891.9,623.8,895.6,622,900.9z M659.3,925.4
		c-3.6,1.3-9.2,2.8-17,4.6c-7.7,1.8-12.8,3.5-15.2,5.3c-3.6,2.8-5.5,6.3-5.5,10.6c0,4.2,1.5,7.9,4.4,11c2.9,3.1,6.6,4.6,11.1,4.6
		c5,0,9.8-1.8,14.4-5.4c3.4-2.7,5.6-6.1,6.6-10c0.7-2.6,1.1-7.5,1.1-14.7V925.4z"/>
	<path fill="#3A7D53" d="M783.2,866.1v24.1h-19v46c0,9.3,0.2,14.7,0.5,16.3c0.4,1.5,1.2,2.8,2.5,3.8c1.3,1,2.9,1.5,4.7,1.5
		c2.6,0,6.3-1,11.2-2.9l2.4,23.4c-6.5,3-13.8,4.5-22,4.5c-5,0-9.6-0.9-13.6-2.7c-4-1.8-7-4.2-8.9-7.1s-3.2-6.8-3.9-11.8
		c-0.6-3.5-0.9-10.6-0.9-21.3v-49.7h-12.8v-24.1h12.8v-22.7l28-17.6v40.3H783.2z"/>
	<path fill="#3A7D53" d="M884.3,943.9l27.8,5c-3.6,11-9.2,19.4-16.9,25.2c-7.7,5.8-17.3,8.6-28.9,8.6c-18.3,0-31.9-6.5-40.7-19.4
		c-6.9-10.4-10.4-23.5-10.4-39.3c0-18.9,4.6-33.7,13.7-44.4c9.1-10.7,20.7-16.1,34.6-16.1c15.7,0,28,5.6,37.1,16.8
		c9.1,11.2,13.4,28.4,13,51.5h-69.8c0.2,9,2.4,15.9,6.7,20.9c4.3,5,9.7,7.5,16.1,7.5c4.4,0,8-1.3,11-3.9
		C880.5,953.7,882.8,949.6,884.3,943.9z M885.9,913.3c-0.2-8.7-2.3-15.4-6.3-19.9c-4-4.5-8.8-6.8-14.5-6.8c-6.1,0-11.1,2.4-15.1,7.2
		c-4,4.8-5.9,11.3-5.9,19.6H885.9z"/>
	<path fill="#3A7D53" d="M983.7,980.2h-27.9V866.1h25.9v16.2c4.4-7.7,8.4-12.7,12-15.1c3.5-2.4,7.6-3.7,12.1-3.7
		c6.3,0,12.5,1.9,18.4,5.7l-8.6,26.3c-4.7-3.3-9.1-4.9-13.1-4.9c-3.9,0-7.2,1.2-9.9,3.5c-2.7,2.3-4.8,6.5-6.4,12.6
		c-1.6,6.1-2.3,18.8-2.3,38.2V980.2z"/>
	<path fill="#3A7D53" d="M1047,947.6l28-4.6c1.2,5.9,3.6,10.3,7.2,13.4c3.6,3,8.7,4.6,15.3,4.6c7.2,0,12.6-1.4,16.3-4.3
		c2.4-2,3.7-4.7,3.7-8.1c0-2.3-0.7-4.2-2-5.7c-1.4-1.4-4.5-2.8-9.3-4c-22.5-5.4-36.7-10.3-42.8-14.7c-8.3-6.2-12.5-14.7-12.5-25.7
		c0-9.9,3.6-18.2,10.8-24.9c7.2-6.7,18.4-10.1,33.5-10.1c14.4,0,25.1,2.5,32.1,7.6c7,5.1,11.8,12.6,14.5,22.6l-26.3,5.3
		c-1.1-4.4-3.3-7.8-6.4-10.2c-3.1-2.4-7.6-3.5-13.4-3.5c-7.3,0-12.6,1.1-15.8,3.3c-2.1,1.6-3.2,3.6-3.2,6.1c0,2.1,0.9,4,2.8,5.5
		c2.5,2,11.2,4.8,26,8.5c14.8,3.7,25.2,8.1,31.1,13.4c5.8,5.4,8.7,12.9,8.7,22.5c0,10.5-4,19.4-12.1,27c-8.1,7.5-20,11.3-35.8,11.3
		c-14.4,0-25.7-3.2-34.1-9.5C1055,967,1049.6,958.4,1047,947.6z"/>
	<path fill="#3A7D53" d="M1218.3,822.7v57.9c9-11.4,19.7-17.1,32.2-17.1c6.4,0,12.2,1.3,17.4,3.9c5.2,2.6,9,5.9,11.7,9.9
		c2.6,4,4.4,8.5,5.4,13.3c1,4.9,1.4,12.4,1.4,22.7v66.9h-27.9v-60.3c0-12-0.5-19.6-1.6-22.8c-1.1-3.2-2.9-5.8-5.6-7.7
		c-2.7-1.9-6-2.8-10.1-2.8c-4.6,0-8.8,1.2-12.4,3.7c-3.6,2.4-6.3,6.1-8,11c-1.7,4.9-2.5,12.2-2.5,21.8v57.1h-27.9V822.7H1218.3z"/>
	<path fill="#3A7D53" d="M1396.4,943.9l27.8,5c-3.6,11-9.2,19.4-16.9,25.2c-7.7,5.8-17.3,8.6-28.9,8.6c-18.3,0-31.9-6.5-40.7-19.4
		c-6.9-10.4-10.4-23.5-10.4-39.3c0-18.9,4.6-33.7,13.7-44.4c9.1-10.7,20.7-16.1,34.6-16.1c15.7,0,28,5.6,37.1,16.8
		c9.1,11.2,13.4,28.4,13,51.5h-69.8c0.2,9,2.4,15.9,6.7,20.9c4.3,5,9.7,7.5,16.1,7.5c4.4,0,8-1.3,11-3.9
		C1392.6,953.7,1394.8,949.6,1396.4,943.9z M1397.9,913.3c-0.2-8.7-2.3-15.4-6.3-19.9c-4-4.5-8.8-6.8-14.5-6.8
		c-6.1,0-11.1,2.4-15.1,7.2c-4,4.8-5.9,11.3-5.9,19.6H1397.9z"/>
	<path fill="#3A7D53" d="M1565.7,980.2h-25.9v-16.8c-4.3,6.5-9.4,11.4-15.2,14.6s-11.8,4.8-17.7,4.8c-12.1,0-22.5-5.3-31.1-15.8
		c-8.6-10.6-12.9-25.3-12.9-44.2c0-19.3,4.2-34,12.6-44.1c8.4-10.1,19-15.1,31.8-15.1c11.8,0,22,5.3,30.6,15.9v-56.7h27.9V980.2z
		 M1491.3,920.6c0,12.2,1.6,21,4.7,26.4c4.5,7.9,10.8,11.8,18.8,11.8c6.4,0,11.9-3,16.4-8.9c4.5-5.9,6.7-14.7,6.7-26.5
		c0-13.1-2.2-22.5-6.5-28.3c-4.4-5.8-10-8.6-16.8-8.6c-6.6,0-12.2,2.8-16.6,8.5C1493.5,900.8,1491.3,909.3,1491.3,920.6z"/>
	<path fill="#3A7D53" d="M527.6,1244.2h-31.9l-12.7-35.8h-58.1l-12,35.8h-31.1l56.6-157.5h31.1L527.6,1244.2z M473.5,1181.9
		l-20-58.4l-19.6,58.4H473.5z"/>
	<path fill="#3A7D53" d="M543.3,1211.6l28-4.6c1.2,5.9,3.6,10.3,7.2,13.4c3.6,3,8.7,4.6,15.3,4.6c7.2,0,12.6-1.4,16.3-4.3
		c2.4-2,3.7-4.7,3.7-8.1c0-2.3-0.7-4.2-2-5.7c-1.4-1.4-4.5-2.8-9.3-4c-22.5-5.4-36.7-10.3-42.8-14.7c-8.3-6.2-12.5-14.7-12.5-25.7
		c0-9.9,3.6-18.2,10.8-24.9c7.2-6.7,18.4-10.1,33.5-10.1c14.4,0,25.1,2.5,32.1,7.6c7,5.1,11.8,12.6,14.5,22.6l-26.3,5.3
		c-1.1-4.4-3.3-7.8-6.4-10.2c-3.1-2.4-7.6-3.5-13.4-3.5c-7.3,0-12.6,1.1-15.8,3.3c-2.1,1.6-3.2,3.6-3.2,6.1c0,2.1,0.9,4,2.8,5.5
		c2.5,2,11.2,4.8,26,8.5c14.8,3.7,25.2,8.1,31.1,13.4c5.8,5.4,8.7,12.9,8.7,22.5c0,10.5-4,19.4-12.1,27c-8.1,7.5-20,11.3-35.8,11.3
		c-14.4,0-25.7-3.2-34.1-9.5C551.4,1231,545.9,1222.4,543.3,1211.6z"/>
	<path fill="#3A7D53" d="M666.5,1211.6l28-4.6c1.2,5.9,3.6,10.3,7.2,13.4c3.6,3,8.7,4.6,15.3,4.6c7.2,0,12.6-1.4,16.3-4.3
		c2.4-2,3.7-4.7,3.7-8.1c0-2.3-0.7-4.2-2-5.7c-1.4-1.4-4.5-2.8-9.3-4c-22.5-5.4-36.7-10.3-42.8-14.7c-8.3-6.2-12.5-14.7-12.5-25.7
		c0-9.9,3.6-18.2,10.8-24.9c7.2-6.7,18.4-10.1,33.5-10.1c14.4,0,25.1,2.5,32.1,7.6c7,5.1,11.8,12.6,14.5,22.6l-26.3,5.3
		c-1.1-4.4-3.3-7.8-6.4-10.2c-3.1-2.4-7.6-3.5-13.4-3.5c-7.3,0-12.6,1.1-15.8,3.3c-2.1,1.6-3.2,3.6-3.2,6.1c0,2.1,0.9,4,2.8,5.5
		c2.5,2,11.2,4.8,26,8.5c14.8,3.7,25.2,8.1,31.1,13.4c5.8,5.4,8.7,12.9,8.7,22.5c0,10.5-4,19.4-12.1,27c-8.1,7.5-20,11.3-35.8,11.3
		c-14.4,0-25.7-3.2-34.1-9.5C674.5,1231,669,1222.4,666.5,1211.6z"/>
	<path fill="#3A7D53" d="M793,1185.5c0-10,2.3-19.7,6.8-29.1c4.6-9.4,11-16.5,19.4-21.5c8.4-4.9,17.7-7.4,28-7.4
		c15.9,0,29,5.6,39.2,16.8c10.2,11.2,15.3,25.4,15.3,42.5c0,17.3-5.1,31.6-15.4,42.9c-10.3,11.4-23.2,17-38.8,17
		c-9.7,0-18.9-2.4-27.6-7.1c-8.8-4.7-15.4-11.7-20-20.8S793,1198.6,793,1185.5z M821.6,1187.1c0,11.3,2.5,20,7.4,26s11.1,9,18.4,9
		c7.3,0,13.4-3,18.3-9c4.9-6,7.4-14.8,7.4-26.2c0-11.2-2.5-19.8-7.4-25.8c-4.9-6-11-9-18.3-9c-7.3,0-13.4,3-18.4,9
		S821.6,1175.8,821.6,1187.1z"/>
	<path fill="#3A7D53" d="M1025.6,1163.8l-27.5,5.4c-0.9-5.9-3-10.4-6.3-13.4s-7.5-4.5-12.7-4.5c-6.9,0-12.5,2.6-16.6,7.8
		c-4.1,5.2-6.2,13.9-6.2,26c0,13.5,2.1,23.1,6.3,28.7c4.2,5.6,9.8,8.4,16.9,8.4c5.3,0,9.6-1.6,13-4.9c3.4-3.3,5.8-8.9,7.1-16.8
		l27.4,5c-2.8,13.6-8.3,23.9-16.4,30.8c-8.1,6.9-18.9,10.4-32.4,10.4c-15.4,0-27.7-5.3-36.9-15.8c-9.2-10.5-13.7-25.1-13.7-43.7
		c0-18.8,4.6-33.5,13.8-44c9.2-10.5,21.6-15.7,37.3-15.7c12.8,0,23,3,30.6,9C1016.8,1142.4,1022.3,1151.6,1025.6,1163.8z"/>
	<path fill="#3A7D53" d="M1056.9,1114.6v-27.9h27.9v27.9H1056.9z M1056.9,1244.2v-114.1h27.9v114.1H1056.9z"/>
	<path fill="#3A7D53" d="M1144.3,1164.9l-25.3-4.9c2.8-11,7.7-19.2,14.7-24.5c6.9-5.3,17.3-7.9,31-7.9c12.4,0,21.7,1.6,27.8,4.8
		c6.1,3.2,10.4,7.2,12.8,12.1c2.5,4.9,3.7,13.9,3.7,27l-0.3,35.2c0,10,0.4,17.4,1.3,22.2c0.9,4.8,2.6,9.9,5,15.3h-27.6
		c-0.7-2-1.6-5-2.7-8.9c-0.5-1.8-0.8-3-1-3.5c-4.8,5-9.9,8.8-15.3,11.3c-5.4,2.5-11.2,3.8-17.4,3.8c-10.8,0-19.4-3.2-25.6-9.6
		c-6.2-6.4-9.4-14.4-9.4-24.2c0-6.4,1.4-12.2,4.3-17.2c2.8-5,6.8-8.9,12-11.6c5.1-2.7,12.5-5,22.2-7c13-2.6,22.1-5.1,27.1-7.4v-3
		c0-5.8-1.3-9.9-4-12.4c-2.6-2.5-7.6-3.7-15-3.7c-5,0-8.8,1.1-11.6,3.2C1148.3,1155.9,1146,1159.6,1144.3,1164.9z M1181.6,1189.4
		c-3.6,1.3-9.2,2.8-17,4.6c-7.7,1.8-12.8,3.5-15.2,5.3c-3.6,2.8-5.5,6.3-5.5,10.6c0,4.2,1.5,7.9,4.4,11c2.9,3.1,6.6,4.6,11.1,4.6
		c5,0,9.8-1.8,14.4-5.4c3.4-2.7,5.6-6.1,6.6-10c0.7-2.6,1.1-7.5,1.1-14.7V1189.4z"/>
	<path fill="#3A7D53" d="M1294.9,1130.1v24.1h-19v46c0,9.3,0.2,14.7,0.5,16.3c0.4,1.5,1.2,2.8,2.5,3.8c1.3,1,2.9,1.5,4.7,1.5
		c2.6,0,6.3-1,11.2-2.9l2.4,23.4c-6.5,3-13.8,4.5-22,4.5c-5,0-9.6-0.9-13.6-2.7c-4-1.8-7-4.2-8.9-7.1s-3.2-6.8-3.9-11.8
		c-0.6-3.5-0.9-10.6-0.9-21.3v-49.7h-12.8v-24.1h12.8v-22.7l28-17.6v40.3H1294.9z"/>
	<path fill="#3A7D53" d="M1324.4,1114.6v-27.9h27.9v27.9H1324.4z M1324.4,1244.2v-114.1h27.9v114.1H1324.4z"/>
	<path fill="#3A7D53" d="M1384.6,1185.5c0-10,2.3-19.7,6.8-29.1c4.6-9.4,11-16.5,19.4-21.5c8.4-4.9,17.7-7.4,28-7.4
		c15.9,0,29,5.6,39.2,16.8c10.2,11.2,15.3,25.4,15.3,42.5c0,17.3-5.1,31.6-15.4,42.9c-10.3,11.4-23.2,17-38.8,17
		c-9.7,0-18.9-2.4-27.6-7.1c-8.8-4.7-15.4-11.7-20-20.8S1384.6,1198.6,1384.6,1185.5z M1413.1,1187.1c0,11.3,2.5,20,7.4,26
		s11.1,9,18.4,9c7.3,0,13.4-3,18.3-9c4.9-6,7.4-14.8,7.4-26.2c0-11.2-2.5-19.8-7.4-25.8c-4.9-6-11-9-18.3-9c-7.3,0-13.4,3-18.4,9
		S1413.1,1175.8,1413.1,1187.1z"/>
	<path fill="#3A7D53" d="M1621.1,1244.2h-27.9v-58.2c0-12.3-0.6-20.3-1.8-23.9c-1.2-3.6-3.1-6.4-5.8-8.4c-2.7-2-5.9-3-9.7-3
		c-4.8,0-9.2,1.4-13,4.3c-3.8,2.9-6.5,6.7-7.9,11.4c-1.4,4.7-2.1,13.5-2.1,26.2v51.7h-27.9v-114.1h25.9v16.8
		c9.2-12.9,20.8-19.3,34.7-19.3c6.2,0,11.8,1.2,16.9,3.6c5.1,2.4,8.9,5.5,11.6,9.2c2.6,3.7,4.4,7.9,5.5,12.7s1.5,11.5,1.5,20.3
		V1244.2z"/>
</g>
<g>
	<path fill="#3A7D53" d="M396.9,102.4c0,15.3-11.5,27.7-25.6,27.7c-14.1,0-25.6-12.4-25.6-27.7c0-15.3,11.5-27.7,25.6-27.7
		C385.4,74.7,396.9,87.1,396.9,102.4z"/>
	<g>
		<path fill="#3A7D53" d="M372.4,48.7c107.5-35.1,223.2-22.6,254.7-28.6c5.5-1.1-125.3-42.2-266.6-3.6
			C244.9,57,164.7,176.1,164.7,176.1c-20.1,23-61.7,81.1-54,89.8c7.3,8.1,47.4-38.3,79-51.6c36.8-12.9,82.1-22.2,124.2-22.2
			c82.2,0,163.6,39.1,163.6,115.8c0,72.4-85.1,99.6-147.1,130c-58.1,28.4-179,85.2-247.9,147c-49,44-82.6,111-82.6,174.7
			C0,860,70.8,952.1,170,952.1c50.3,0,95.6-23.8,127.5-56.8v329.3c0,15.3,10.6,23,21.3,23c10.6,0,21.2-7.7,21.2-23V721.6
			c0-16.1-10.6-23.8-21.2-23.8c-1.1,0-2.1,0.1-3.2,0.3h-34.2c-14.1,0-25.6,12.4-25.6,27.7c0,15.3,13.9,27.4,28,27.4h4.4
			c0,0,6.3-0.2,7.1,7c7.6,67.6-21.8,135.8-78.9,135.8c-57.1,0-94.4-62-94.4-136.4c0-136.4,76.7-196,209.1-259.4
			c23.3-11.2,92.8-40.1,129.9-70.3c47.9-39,59.2-85.5,59.2-122c0-99.7-98.5-161.8-206.1-161.8c-18.7,0-37.3,1.6-56,4.6
			c-12.2,6-16.1-3-7.7-13.4C270.3,112.7,312.8,68.2,372.4,48.7z"/>
		<path fill="#3A7D53" d="M283.8,753.2C282.2,753.5,285.5,753.2,283.8,753.2L283.8,753.2z"/>
	</g>
</g>
<g>
</g>
<g>
</g>
<g>
</g>
<g>
</g>
<g>
</g>
<g>
</g>
<g>
</g>
<g>
</g>
<g>
</g>
<g>
</g>
<g>
</g>
<g>
</g>
<g>
</g>
<g>
</g>
<g>
</g>
<g>
</g>
<g>
</g>
<g>
</g>
</svg>
