<svg id="Layer_1" data-name="Layer 1" xmlns="http://www.w3.org/2000/svg" viewBox="0 0 1190.21 1247.63"><defs><style>.cls-1{fill:#3a7d53;}</style></defs><title>GSWALogo3LineOrig</title><path class="cls-1" d="M460.44,799.25V786.37l43-.07V827A74.7,74.7,0,0,1,483,839.89a56.45,56.45,0,0,1-21.58,4.31,54,54,0,0,1-27.15-6.93,44.23,44.23,0,0,1-18.43-20,67.41,67.41,0,0,1-6.23-29.29A72.68,72.68,0,0,1,415.79,758q6.19-13.89,17.81-20.64t26.77-6.74a49.47,49.47,0,0,1,19.89,3.86,33.21,33.21,0,0,1,13.94,10.75q5,6.89,7.68,18l-12.1,3.59a42.17,42.17,0,0,0-5.67-13.18,23.51,23.51,0,0,0-9.68-7.68,33.17,33.17,0,0,0-14-2.88,38.37,38.37,0,0,0-15.91,3,29.73,29.73,0,0,0-10.83,8,38.58,38.58,0,0,0-6.4,10.86,61.65,61.65,0,0,0-3.87,22.1q0,14.68,4.67,24.57a31.22,31.22,0,0,0,13.59,14.68,39.46,39.46,0,0,0,19,4.79,42,42,0,0,0,17-3.63q8.3-3.63,12.59-7.75V799.25H460.44Z" transform="translate(-1.38 -2.16)"/><path class="cls-1" d="M514.37,842.32V762.77h11.21v12.06q4.29-8.46,7.92-11.16a13.1,13.1,0,0,1,8-2.7q6.29,0,12.8,4.34L550,777.83a16.83,16.83,0,0,0-9.13-2.92,11.28,11.28,0,0,0-7.33,2.66,14.48,14.48,0,0,0-4.63,7.38,56.57,56.57,0,0,0-2.08,15.73v41.65H514.37Z" transform="translate(-1.38 -2.16)"/><path class="cls-1" d="M604.89,816.71l12.87,1.72q-3,12.21-11.28,19t-21,6.74q-16.12,0-25.56-10.75t-9.44-30.15q0-20.07,9.55-31.16T584.76,761q14.73,0,24.07,10.86t9.34,30.56q0,1.2-.07,3.6H563.32q0.69,13.11,6.85,20.07a19.65,19.65,0,0,0,15.36,7,18.06,18.06,0,0,0,11.69-3.89Q602.05,825.24,604.89,816.71ZM564,794.91h41q-0.83-10-4.7-15.06a18.55,18.55,0,0,0-15.43-7.79,19,19,0,0,0-14.42,6.22Q564.63,784.5,564,794.91Z" transform="translate(-1.38 -2.16)"/><path class="cls-1" d="M674.24,832.51a45.92,45.92,0,0,1-13.32,9,35.86,35.86,0,0,1-13.73,2.62q-12.11,0-18.61-6.4t-6.5-16.37a23.2,23.2,0,0,1,2.46-10.67,21.5,21.5,0,0,1,6.43-7.75,29.22,29.22,0,0,1,9-4.42,82.79,82.79,0,0,1,11.07-2q15.08-1.95,22.2-4.64,0.07-2.77.07-3.52,0-8.24-3.53-11.61-4.77-4.57-14.18-4.57-8.79,0-13,3.33t-6.19,11.8l-12.17-1.8a34.09,34.09,0,0,1,5.46-13.67,24,24,0,0,1,11-8A45.63,45.63,0,0,1,657.36,761q9.41,0,15.29,2.4t8.65,6a22.06,22.06,0,0,1,3.87,9.18,82.11,82.11,0,0,1,.62,12.43v18q0,18.8.79,23.78a31.6,31.6,0,0,0,3.15,9.55h-13A30.44,30.44,0,0,1,674.24,832.51Zm-1-30.11q-6.78,3-20.34,5.09-7.68,1.2-10.86,2.7a11.08,11.08,0,0,0-4.91,4.38,12.21,12.21,0,0,0-1.73,6.4,11.9,11.9,0,0,0,3.77,9q3.77,3.6,11,3.6a24.13,24.13,0,0,0,12.8-3.41,20.37,20.37,0,0,0,8.23-9.33q2-4.57,2-13.48V802.4Z" transform="translate(-1.38 -2.16)"/><path class="cls-1" d="M725.19,830.26l1.8,11.91a42.88,42.88,0,0,1-9.41,1.2q-6.78,0-10.51-2.32a12.65,12.65,0,0,1-5.26-6.1q-1.52-3.78-1.52-15.92V773.26h-9.13V762.77h9.13v-19.7L712.67,735v27.79h12.52v10.49H712.67v46.51q0,5.77.66,7.42a5.48,5.48,0,0,0,2.14,2.62,7.76,7.76,0,0,0,4.25,1A37.49,37.49,0,0,0,725.19,830.26Z" transform="translate(-1.38 -2.16)"/><path class="cls-1" d="M759.59,807l12.66-1.2a32,32,0,0,0,4.18,13.52,23.22,23.22,0,0,0,10.2,8.54,36.09,36.09,0,0,0,15.56,3.26,34.73,34.73,0,0,0,13.56-2.47,19,19,0,0,0,8.75-6.78,16.61,16.61,0,0,0,2.87-9.4,15.09,15.09,0,0,0-2.77-9q-2.77-3.86-9.13-6.48-4.08-1.72-18.05-5.36t-19.58-6.85A28.27,28.27,0,0,1,767,774.57a26.61,26.61,0,0,1-3.56-13.67,29.59,29.59,0,0,1,4.36-15.54,27.5,27.5,0,0,1,12.73-11,45,45,0,0,1,18.61-3.75A47.44,47.44,0,0,1,819,734.57a29.27,29.27,0,0,1,13.25,11.57,35.21,35.21,0,0,1,5,17.3l-12.87,1q-1-10.41-7-15.73t-17.67-5.32q-12.18,0-17.74,4.83a14.9,14.9,0,0,0-5.57,11.65,13,13,0,0,0,3.94,9.74q3.87,3.82,20.23,7.83t22.45,7q8.85,4.42,13.07,11.2a29,29,0,0,1,4.22,15.62,31.67,31.67,0,0,1-4.63,16.52,31.27,31.27,0,0,1-13.32,12.06,43.37,43.37,0,0,1-19.54,4.31q-13.77,0-23.07-4.34a33,33,0,0,1-14.59-13.07A39.26,39.26,0,0,1,759.59,807Z" transform="translate(-1.38 -2.16)"/><path class="cls-1" d="M863.53,842.32L841,762.77h12.87l11.69,45.92L870,825.77q0.28-1.27,3.8-16.4l11.69-46.59h12.8l11,46.14,3.67,15.21,4.22-15.36,12.59-46h12.1l-23,79.55H905.93l-11.69-47.64-2.84-13.56-14.87,61.2h-13Z" transform="translate(-1.38 -2.16)"/><path class="cls-1" d="M993.13,832.51a45.92,45.92,0,0,1-13.32,9,35.86,35.86,0,0,1-13.73,2.62q-12.11,0-18.61-6.4T941,821.35a23.2,23.2,0,0,1,2.46-10.67,21.5,21.5,0,0,1,6.43-7.75,29.22,29.22,0,0,1,9-4.42,82.79,82.79,0,0,1,11.07-2q15.08-1.95,22.2-4.64,0.07-2.77.07-3.52,0-8.24-3.53-11.61-4.77-4.57-14.18-4.57-8.79,0-13,3.33t-6.19,11.8l-12.17-1.8a34.09,34.09,0,0,1,5.46-13.67,24,24,0,0,1,11-8A45.63,45.63,0,0,1,976.25,761q9.41,0,15.29,2.4t8.65,6a22.06,22.06,0,0,1,3.87,9.18,82.11,82.11,0,0,1,.62,12.43v18q0,18.8.79,23.78a31.6,31.6,0,0,0,3.15,9.55h-13A30.44,30.44,0,0,1,993.13,832.51Zm-1-30.11q-6.78,3-20.34,5.09-7.68,1.2-10.86,2.7a11.08,11.08,0,0,0-4.91,4.38,12.21,12.21,0,0,0-1.73,6.4,11.9,11.9,0,0,0,3.77,9q3.77,3.6,11,3.6a24.13,24.13,0,0,0,12.8-3.41,20.37,20.37,0,0,0,8.23-9.33q2-4.57,2-13.48V802.4Z" transform="translate(-1.38 -2.16)"/><path class="cls-1" d="M1016.89,842.32V762.77H1028v11.16a27.18,27.18,0,0,1,9.2-9.4A24.31,24.31,0,0,1,1050.3,761q8.16,0,13.38,3.67a19.5,19.5,0,0,1,7.37,10.26q8.72-13.93,22.69-13.93,10.93,0,16.81,6.55t5.88,20.19v54.6h-12.38V792.21q0-8.09-1.21-11.65a11.14,11.14,0,0,0-4.39-5.73,12.93,12.93,0,0,0-7.47-2.17,16.72,16.72,0,0,0-12.87,5.58q-5.12,5.58-5.12,17.86v46.22h-12.45V790.64q0-9-3-13.48t-10-4.49a17.09,17.09,0,0,0-9.72,3,16.82,16.82,0,0,0-6.47,8.76q-2,5.77-2,16.63v41.27h-12.45Z" transform="translate(-1.38 -2.16)"/><path class="cls-1" d="M1127.82,872.81v-110h11.34v10.34a28.93,28.93,0,0,1,9.06-9.1,23.36,23.36,0,0,1,12.24-3,27.45,27.45,0,0,1,16.6,5.24A31.86,31.86,0,0,1,1187.93,781a58,58,0,0,1,3.67,20.94,57,57,0,0,1-4,22,32.46,32.46,0,0,1-11.76,15,28.54,28.54,0,0,1-16.22,5.21,22,22,0,0,1-11.17-2.85,26,26,0,0,1-8.13-7.19v38.72h-12.45ZM1139.09,803q0,15.36,5.74,22.7t13.9,7.34q8.3,0,14.21-7.6t5.91-23.56q0-15.2-5.78-22.77t-13.8-7.57q-8,0-14.08,8.05T1139.09,803Z" transform="translate(-1.38 -2.16)"/><path class="cls-1" d="M430.7,1026.41L403.79,916.6h13.77l15.43,72q2.49,11.31,4.29,22.47,3.87-17.6,4.57-20.3l19.3-74.15h16.19l14.53,55.58a316,316,0,0,1,7.89,38.88q1.94-10.41,5-23.89l15.91-70.56h13.49l-27.81,109.81H493.44l-21.37-83.67q-2.7-10.49-3.18-12.88-1.59,7.57-3,12.88l-21.51,83.67H430.7Z" transform="translate(-1.38 -2.16)"/><path class="cls-1" d="M602.24,1016.59a45.92,45.92,0,0,1-13.32,9,35.86,35.86,0,0,1-13.73,2.62q-12.11,0-18.61-6.4t-6.5-16.37a23.21,23.21,0,0,1,2.46-10.67A21.5,21.5,0,0,1,559,987a29.22,29.22,0,0,1,9-4.42,82.77,82.77,0,0,1,11.07-2q15.08-1.95,22.2-4.64,0.07-2.77.07-3.52,0-8.24-3.53-11.61-4.77-4.57-14.18-4.57-8.79,0-13,3.33t-6.19,11.8l-12.17-1.8a34.07,34.07,0,0,1,5.46-13.67,24,24,0,0,1,11-8,45.63,45.63,0,0,1,16.67-2.81q9.41,0,15.29,2.4t8.65,6a22.07,22.07,0,0,1,3.87,9.18,82,82,0,0,1,.62,12.43v18q0,18.8.79,23.78a31.6,31.6,0,0,0,3.15,9.55h-13A30.42,30.42,0,0,1,602.24,1016.59Zm-1-30.11q-6.78,3-20.34,5.09-7.68,1.2-10.86,2.7a11.08,11.08,0,0,0-4.91,4.38,12.21,12.21,0,0,0-1.73,6.4,11.9,11.9,0,0,0,3.77,9q3.77,3.6,11,3.6a24.13,24.13,0,0,0,12.8-3.41,20.37,20.37,0,0,0,8.23-9.33q2-4.57,2-13.48v-4.94Z" transform="translate(-1.38 -2.16)"/><path class="cls-1" d="M674.73,1014.35l1.8,11.91a42.88,42.88,0,0,1-9.41,1.2q-6.78,0-10.51-2.32a12.65,12.65,0,0,1-5.26-6.1q-1.52-3.78-1.52-15.92V957.34h-9.13V946.86h9.13v-19.7l12.38-8.09v27.79h12.52v10.49H662.21v46.51q0,5.77.66,7.42a5.48,5.48,0,0,0,2.14,2.62,7.76,7.76,0,0,0,4.25,1A37.49,37.49,0,0,0,674.73,1014.35Z" transform="translate(-1.38 -2.16)"/><path class="cls-1" d="M751.64,1000.79l12.87,1.72q-3,12.21-11.28,19t-21,6.74q-16.12,0-25.56-10.75t-9.44-30.15q0-20.07,9.55-31.16t24.76-11.08q14.73,0,24.07,10.86t9.34,30.56q0,1.2-.07,3.6H710.06q0.69,13.11,6.85,20.07a19.65,19.65,0,0,0,15.36,7,18.06,18.06,0,0,0,11.69-3.89Q748.8,1009.33,751.64,1000.79ZM710.76,979h41q-0.83-10-4.7-15.06a18.55,18.55,0,0,0-15.43-7.79,19,19,0,0,0-14.42,6.22Q711.38,968.58,710.76,979Z" transform="translate(-1.38 -2.16)"/><path class="cls-1" d="M794.45,1026.41V946.86h11.21v12.06q4.29-8.46,7.92-11.16a13.1,13.1,0,0,1,8-2.7q6.29,0,12.8,4.34l-4.29,12.51a16.83,16.83,0,0,0-9.13-2.92,11.28,11.28,0,0,0-7.33,2.66A14.48,14.48,0,0,0,809,969a56.55,56.55,0,0,0-2.08,15.73v41.65H794.45Z" transform="translate(-1.38 -2.16)"/><path class="cls-1" d="M851.23,1002.66l12.31-2.1q1,8,5.78,12.28t13.25,4.27q8.58,0,12.73-3.78a11.66,11.66,0,0,0,4.15-8.88,8.37,8.37,0,0,0-3.67-7.19q-2.56-1.8-12.73-4.57-13.7-3.75-19-6.48a18.93,18.93,0,0,1-8-7.57A21.3,21.3,0,0,1,853.31,968a21.84,21.84,0,0,1,2.25-9.85,21.37,21.37,0,0,1,6.12-7.53,24.85,24.85,0,0,1,7.92-3.93,35,35,0,0,1,10.76-1.61,39.6,39.6,0,0,1,15.18,2.7,20.77,20.77,0,0,1,9.65,7.3q3.11,4.61,4.29,12.32l-12.17,1.8a14.78,14.78,0,0,0-4.81-9.59q-4-3.45-11.24-3.45-8.58,0-12.24,3.07a9.16,9.16,0,0,0-3.67,7.19,7.83,7.83,0,0,0,1.52,4.72,11,11,0,0,0,4.77,3.59q1.87,0.75,11,3.45,13.21,3.82,18.43,6.25a19.06,19.06,0,0,1,8.2,7.08,21,21,0,0,1,3,11.54,24.11,24.11,0,0,1-14.11,21.91,35.62,35.62,0,0,1-15.49,3.26q-14.32,0-21.82-6.44T851.23,1002.66Z" transform="translate(-1.38 -2.16)"/><path class="cls-1" d="M941.49,1026.41V916.6h12.45V956q8.72-10.94,22-10.94a27.81,27.81,0,0,1,14.18,3.48,19.82,19.82,0,0,1,8.61,9.63q2.59,6.14,2.59,17.83v50.41H988.88V976q0-10.11-4-14.72t-11.45-4.61A19,19,0,0,0,963,959.78a17.18,17.18,0,0,0-7,8.43q-2.07,5.32-2.08,14.68v43.52H941.49Z" transform="translate(-1.38 -2.16)"/><path class="cls-1" d="M1085,1000.79l12.87,1.72q-3,12.21-11.28,19t-21,6.74q-16.12,0-25.56-10.75t-9.44-30.15q0-20.07,9.55-31.16t24.76-11.08q14.73,0,24.07,10.86t9.34,30.56q0,1.2-.07,3.6h-54.79q0.69,13.11,6.85,20.07a19.65,19.65,0,0,0,15.36,7,18.06,18.06,0,0,0,11.69-3.89Q1082.18,1009.33,1085,1000.79ZM1044.14,979h41q-0.83-10-4.7-15.06a18.55,18.55,0,0,0-15.43-7.79,19,19,0,0,0-14.42,6.22Q1044.76,968.58,1044.14,979Z" transform="translate(-1.38 -2.16)"/><path class="cls-1" d="M1175.63,1026.41v-10q-7,11.84-20.54,11.83a27.27,27.27,0,0,1-16.15-5.24,33.92,33.92,0,0,1-11.41-14.64,54.23,54.23,0,0,1-4-21.61,60.71,60.71,0,0,1,3.67-21.61,31,31,0,0,1,11-14.87,27.79,27.79,0,0,1,16.39-5.17,23,23,0,0,1,11.83,3,25.44,25.44,0,0,1,8.44,7.9V916.6h12.38v109.81h-11.55Zm-39.36-39.7q0,15.28,5.95,22.85t14,7.57q8.16,0,13.87-7.23t5.71-22.06q0-16.33-5.81-24t-14.32-7.64q-8.3,0-13.87,7.34T1136.27,986.71Z" transform="translate(-1.38 -2.16)"/><path class="cls-1" d="M401.85,1210.49l38.94-109.81h14.46l41.5,109.81H481.47l-11.83-33.26h-42.4l-11.14,33.26H401.85Zm29.26-45.09h34.38L454.91,1135q-4.84-13.86-7.19-22.77a149.11,149.11,0,0,1-5.46,21Z" transform="translate(-1.38 -2.16)"/><path class="cls-1" d="M508,1186.74l12.31-2.1q1,8,5.78,12.28t13.25,4.27q8.58,0,12.73-3.78a11.66,11.66,0,0,0,4.15-8.88,8.37,8.37,0,0,0-3.67-7.19q-2.56-1.8-12.73-4.57-13.7-3.75-19-6.48a18.93,18.93,0,0,1-8-7.57,21.3,21.3,0,0,1-2.73-10.67,21.85,21.85,0,0,1,2.25-9.85,21.38,21.38,0,0,1,6.12-7.53,24.85,24.85,0,0,1,7.92-3.93,35,35,0,0,1,10.76-1.61,39.59,39.59,0,0,1,15.18,2.7,20.76,20.76,0,0,1,9.65,7.3q3.11,4.61,4.29,12.32l-12.17,1.8a14.77,14.77,0,0,0-4.81-9.59q-4-3.45-11.24-3.45-8.58,0-12.24,3.07a9.16,9.16,0,0,0-3.67,7.19,7.84,7.84,0,0,0,1.52,4.72,11,11,0,0,0,4.77,3.59q1.87,0.75,11,3.45,13.21,3.82,18.43,6.25a19.06,19.06,0,0,1,8.2,7.08,21,21,0,0,1,3,11.54A24.11,24.11,0,0,1,554.89,1209a35.62,35.62,0,0,1-15.49,3.26q-14.32,0-21.82-6.44T508,1186.74Z" transform="translate(-1.38 -2.16)"/><path class="cls-1" d="M585.91,1186.74l12.31-2.1q1,8,5.78,12.28t13.25,4.27q8.58,0,12.73-3.78a11.66,11.66,0,0,0,4.15-8.88,8.37,8.37,0,0,0-3.67-7.19q-2.56-1.8-12.73-4.57-13.7-3.75-19-6.48a18.93,18.93,0,0,1-8-7.57,21.3,21.3,0,0,1-2.73-10.67,21.85,21.85,0,0,1,2.25-9.85,21.38,21.38,0,0,1,6.12-7.53,24.85,24.85,0,0,1,7.92-3.93,35,35,0,0,1,10.76-1.61,39.6,39.6,0,0,1,15.18,2.7,20.77,20.77,0,0,1,9.65,7.3q3.11,4.61,4.29,12.32l-12.17,1.8a14.78,14.78,0,0,0-4.81-9.59q-4-3.45-11.24-3.45-8.58,0-12.24,3.07a9.16,9.16,0,0,0-3.67,7.19,7.84,7.84,0,0,0,1.52,4.72,11,11,0,0,0,4.77,3.59q1.87,0.75,11,3.45,13.21,3.82,18.43,6.25a19.06,19.06,0,0,1,8.2,7.08,21,21,0,0,1,3,11.54A24.11,24.11,0,0,1,632.81,1209a35.62,35.62,0,0,1-15.49,3.26q-14.32,0-21.82-6.44T585.91,1186.74Z" transform="translate(-1.38 -2.16)"/><path class="cls-1" d="M664.17,1170.71q0-22.1,11.34-32.73a32.63,32.63,0,0,1,23.1-8.84q15.15,0,24.76,10.75t9.62,29.7q0,15.36-4.25,24.16a31.55,31.55,0,0,1-12.38,13.67,33.9,33.9,0,0,1-17.74,4.87q-15.43,0-24.94-10.71T664.17,1170.71Zm12.8,0q0,15.28,6.16,22.88a19.13,19.13,0,0,0,15.49,7.6q9.27,0,15.43-7.64t6.16-23.29q0-14.76-6.19-22.36t-15.39-7.6a19.16,19.16,0,0,0-15.49,7.57Q677,1155.43,677,1170.71Z" transform="translate(-1.38 -2.16)"/><path class="cls-1" d="M802.61,1181.35l12.24,1.72q-2,13.71-10.27,21.46a28.56,28.56,0,0,1-20.3,7.75q-15.08,0-24.25-10.67t-9.17-30.6a59.39,59.39,0,0,1,3.94-22.55,29.08,29.08,0,0,1,12-14.49,33.48,33.48,0,0,1,17.54-4.83q12,0,19.58,6.55t9.75,18.61l-12.11,2q-1.73-8-6.12-12.06a15.12,15.12,0,0,0-10.62-4,18.71,18.71,0,0,0-15.29,7.3q-5.88,7.3-5.88,23.11,0,16,5.67,23.29a17.9,17.9,0,0,0,14.8,7.27,16.69,16.69,0,0,0,12.24-4.87Q801.3,1191.46,802.61,1181.35Z" transform="translate(-1.38 -2.16)"/><path class="cls-1" d="M832.66,1116.18v-15.5h12.45v15.5H832.66Zm0,94.3v-79.55h12.45v79.55H832.66Z" transform="translate(-1.38 -2.16)"/><path class="cls-1" d="M919.08,1200.67a45.92,45.92,0,0,1-13.32,9,35.86,35.86,0,0,1-13.73,2.62q-12.11,0-18.61-6.4t-6.5-16.37a23.2,23.2,0,0,1,2.46-10.67,21.5,21.5,0,0,1,6.43-7.75,29.22,29.22,0,0,1,9-4.42,82.79,82.79,0,0,1,11.07-2q15.08-1.95,22.2-4.64,0.07-2.77.07-3.52,0-8.24-3.53-11.61-4.77-4.57-14.18-4.57-8.79,0-13,3.33t-6.19,11.8l-12.17-1.8a34.09,34.09,0,0,1,5.46-13.67,24,24,0,0,1,11-8,45.63,45.63,0,0,1,16.67-2.81q9.41,0,15.29,2.4t8.65,6a22.06,22.06,0,0,1,3.87,9.18,82.11,82.11,0,0,1,.62,12.43v18q0,18.8.79,23.78a31.6,31.6,0,0,0,3.15,9.55h-13A30.44,30.44,0,0,1,919.08,1200.67Zm-1-30.11q-6.78,3-20.34,5.09-7.68,1.2-10.86,2.7a11.08,11.08,0,0,0-4.91,4.38,12.21,12.21,0,0,0-1.73,6.4,11.9,11.9,0,0,0,3.77,9q3.77,3.6,11,3.6a24.13,24.13,0,0,0,12.8-3.41A20.37,20.37,0,0,0,916,1189q2-4.57,2-13.48v-4.94Z" transform="translate(-1.38 -2.16)"/><path class="cls-1" d="M984.2,1198.43l1.8,11.91a42.88,42.88,0,0,1-9.41,1.2q-6.78,0-10.51-2.32a12.65,12.65,0,0,1-5.26-6.1q-1.52-3.78-1.52-15.92v-45.77h-9.13v-10.49h9.13v-19.7l12.38-8.09v27.79H984.2v10.49H971.68v46.51q0,5.77.66,7.42a5.48,5.48,0,0,0,2.14,2.62,7.76,7.76,0,0,0,4.25,1A37.49,37.49,0,0,0,984.2,1198.43Z" transform="translate(-1.38 -2.16)"/><path class="cls-1" d="M1003.53,1116.18v-15.5H1016v15.5h-12.45Zm0,94.3v-79.55H1016v79.55h-12.45Z" transform="translate(-1.38 -2.16)"/><path class="cls-1" d="M1037.38,1170.71q0-22.1,11.34-32.73a32.63,32.63,0,0,1,23.1-8.84q15.15,0,24.76,10.75t9.62,29.7q0,15.36-4.25,24.16a31.55,31.55,0,0,1-12.38,13.67,33.9,33.9,0,0,1-17.74,4.87q-15.43,0-24.94-10.71T1037.38,1170.71Zm12.8,0q0,15.28,6.16,22.88a19.13,19.13,0,0,0,15.49,7.6q9.27,0,15.43-7.64t6.16-23.29q0-14.76-6.19-22.36t-15.39-7.6a19.16,19.16,0,0,0-15.49,7.57Q1050.18,1155.43,1050.18,1170.71Z" transform="translate(-1.38 -2.16)"/><path class="cls-1" d="M1127.89,1210.49v-79.55h11.21v11.31q8.09-13.11,23.38-13.11a28.65,28.65,0,0,1,12.21,2.58,19.46,19.46,0,0,1,8.33,6.78,27.24,27.24,0,0,1,3.87,10,83.69,83.69,0,0,1,.69,13.11v48.91h-12.45V1162.1q0-8.24-1.45-12.32a12.75,12.75,0,0,0-5.15-6.52,15.44,15.44,0,0,0-8.68-2.43,19.29,19.29,0,0,0-13.73,5.47q-5.78,5.47-5.78,20.75v43.44h-12.45Z" transform="translate(-1.38 -2.16)"/><path class="cls-1" d="M398.24,104.53c0,15.31-11.45,27.7-25.58,27.7s-25.58-12.4-25.58-27.7,11.45-27.69,25.58-27.69S398.24,89.24,398.24,104.53Z" transform="translate(-1.38 -2.16)"/><path class="cls-1" d="M373.76,50.9C481.22,15.82,596.92,28.35,628.47,22.26,633.94,21.2,503.2-20,361.86,18.68,246.27,59.19,166.13,178.26,166.13,178.26c-20.08,23-61.71,81.12-54,89.77,7.28,8.13,47.36-38.3,79-51.65,36.77-12.94,82.09-22.16,124.23-22.16C397.58,194.23,479,233.34,479,310c0,72.44-85.12,99.61-147.1,130-58.07,28.44-179,85.22-247.92,147-49,44-82.64,111-82.64,174.71,0,100.48,70.84,192.52,170,192.52,50.29,0,95.62-23.78,127.5-56.76v329.29c0,15.34,10.62,23,21.25,23s21.25-7.67,21.25-23V723.72c0-16.11-10.62-23.78-21.25-23.78a22.54,22.54,0,0,0-3.22.27H282.75c-14.12,0-25.58,12.4-25.58,27.69s13.9,27.44,28,27.44h4.44s6.3-.22,7.11,7c7.65,67.6-21.83,135.78-78.92,135.78s-94.44-62-94.44-136.36c0-136.36,76.74-196,209.05-259.4,23.31-11.17,92.82-40.1,129.86-70.31,47.86-39,59.25-85.49,59.25-122,0-99.71-98.46-161.84-206.13-161.84a354.77,354.77,0,0,0-56,4.62c-12.16,6-16.14-3-7.75-13.36C271.67,114.84,314.23,70.33,373.76,50.9Z" transform="translate(-1.38 -2.16)"/><path class="cls-1" d="M285.19,755.34c-1.58.33,1.67,0,0,0h0Z" transform="translate(-1.38 -2.16)"/></svg>